# xmcd
#
# Track frame offsets:
# 150
# 17089
# 30538
# 48224
# 69806
# 81060
# 95735
# 112353
# 123311
# 140182
# 155755
# 174557
#
# Disc length: 2524 seconds
#
#
# Revision: 0
# Processed by: cddbd v1.5.1PL0 Copyright (c) Steve Scherf et al.
# Submitted via: FreeRIP 2.35 
#
DISCID=a309da0c
DTITLE=Mojo Collins - World Full Of Stragne
DYEAR=2004
DGENRE=Blues
TTITLE0=Since Losing You
TTITLE1=Strange Thang
TTITLE2=Change of Heart
TTITLE3=Dancing n'Islands
TTITLE4=Got It Goin' On
TTITLE5=Muddy Waters Blues
TTITLE6=What About You
TTITLE7=War and Peace
TTITLE8=Lovin' Cup
TTITLE9=Pickin' n Grinnin'
TTITLE10=Sweet Babylove
TTITLE11=World Full Of Strange
EXTD=Mojo Collins
EXTT0=
EXTT1=
EXTT2=
EXTT3=
EXTT4=
EXTT5=
EXTT6=
EXTT7=
EXTT8=
EXTT9=
EXTT10=
EXTT11=
PLAYORDER=
